<?xml version="1.0" encoding="UTF-8"?>
<svg xmlns="http://www.w3.org/2000/svg" xmlns:xlink="http://www.w3.org/1999/xlink" width="20pt" height="20pt" viewBox="0 0 20 20" version="1.1">
<g id="surface1">
<path style=" stroke:none;fill-rule:nonzero;fill:rgb(0%,0%,0%);fill-opacity:1;" d="M 10.960938 10.164062 L 15.636719 5.480469 C 15.828125 5.257812 15.816406 4.925781 15.609375 4.714844 C 15.398438 4.503906 15.0625 4.492188 14.84375 4.6875 L 10.164062 9.367188 L 5.480469 4.679688 C 5.261719 4.457031 4.898438 4.457031 4.679688 4.679688 C 4.457031 4.898438 4.457031 5.261719 4.679688 5.480469 L 9.367188 10.164062 L 4.679688 14.84375 C 4.515625 14.980469 4.449219 15.195312 4.5 15.402344 C 4.550781 15.609375 4.710938 15.769531 4.914062 15.820312 C 5.121094 15.867188 5.339844 15.796875 5.476562 15.636719 L 10.164062 10.960938 L 14.84375 15.636719 C 15.0625 15.828125 15.398438 15.816406 15.609375 15.609375 C 15.816406 15.398438 15.828125 15.0625 15.636719 14.84375 Z M 10.960938 10.164062 "/>
</g>
</svg>
