<?xml version="1.0" encoding="UTF-8"?>
<svg xmlns="http://www.w3.org/2000/svg" xmlns:xlink="http://www.w3.org/1999/xlink" width="20pt" height="20pt" viewBox="0 0 20 20" version="1.1">
<g id="surface1">
<path style=" stroke:none;fill-rule:nonzero;fill:rgb(0%,0%,0%);fill-opacity:1;" d="M 9.03125 2.257812 C 5.289062 2.257812 2.257812 5.289062 2.257812 9.03125 C 2.257812 12.773438 5.289062 15.808594 9.03125 15.808594 C 12.773438 15.808594 15.808594 12.773438 15.808594 9.03125 C 15.808594 5.289062 12.773438 2.257812 9.03125 2.257812 Z M 9.03125 14.625 C 6.746094 14.625 4.683594 13.246094 3.816406 11.128906 C 2.9375 9.015625 3.433594 6.582031 5.058594 4.972656 C 6.683594 3.363281 9.121094 2.890625 11.230469 3.785156 C 13.339844 4.671875 14.699219 6.746094 14.675781 9.03125 C 14.648438 12.132812 12.132812 14.625 9.03125 14.625 Z M 9.03125 14.625 "/>
<path style=" stroke:none;fill-rule:nonzero;fill:rgb(0%,0%,0%);fill-opacity:1;" d="M 17.898438 16.761719 L 14.980469 13.84375 C 14.738281 14.140625 14.480469 14.421875 14.199219 14.675781 L 17.105469 17.585938 C 17.328125 17.777344 17.664062 17.765625 17.871094 17.554688 C 18.082031 17.347656 18.09375 17.015625 17.898438 16.789062 Z M 17.898438 16.761719 "/>
<path style=" stroke:none;fill-rule:nonzero;fill:rgb(0%,0%,0%);fill-opacity:1;" d="M 11.292969 8.472656 L 6.773438 8.472656 C 6.460938 8.472656 6.210938 8.71875 6.210938 9.03125 C 6.210938 9.347656 6.460938 9.59375 6.773438 9.59375 L 11.292969 9.59375 C 11.601562 9.59375 11.855469 9.347656 11.855469 9.03125 C 11.855469 8.71875 11.601562 8.472656 11.292969 8.472656 Z M 11.292969 8.472656 "/>
</g>
</svg>
